<svg id="Capa_1" enable-background="new 0 0 512 512" height="512" viewBox="0 0 512 512" width="512" xmlns="http://www.w3.org/2000/svg"><g><g><g><path d="m333.037 111.562h31.507v46.05h-31.507z" fill="#fcc16d"/><g><path d="m394.925 414.206v87.492c0 5.69-4.612 10.302-10.302 10.302h-257.25c-5.69 0-10.302-4.612-10.302-10.302v-87.493c0-65.822 53.359-119.182 119.182-119.182h39.49c65.823.001 119.182 53.36 119.182 119.183z" fill="#ffede7"/><path d="m394.929 414.207v87.492c0 5.69-4.612 10.302-10.302 10.302h-19.897v-97.793c0-65.827-53.36-119.187-119.178-119.187h30.189c65.826-.002 119.188 53.36 119.188 119.186z" fill="#ffe1da"/><g><g><path d="m336.288 512v-85.446c0-4.267 3.459-7.726 7.726-7.726s7.726 3.459 7.726 7.726v85.446z" fill="#ffe1da"/></g></g><g><g><path d="m160.256 512v-85.446c0-4.267 3.459-7.726 7.726-7.726s7.726 3.459 7.726 7.726v85.446z" fill="#ffe1da"/></g></g></g><g><path d="m281.139 269.083v44.721c0 13.879-11.26 25.139-25.139 25.139-13.889 0-25.15-11.26-25.15-25.139v-44.721z" fill="#ffcec0"/></g><path d="m281.139 269.083v21.807c-7.804 2.029-15.969 3.126-24.373 3.188h-.766c-8.673 0-17.108-1.087-25.15-3.136v-21.858h50.289z" fill="#fdb0a0"/><g><g><circle cx="350.167" cy="175.445" fill="#fdb0a0" r="31.459"/></g></g><path d="m337.203 132.499v58.651c0 44.793-35.81 81.896-80.592 82.228-45.135.331-81.834-36.151-81.834-81.203v-59.676c0-44.855 36.368-81.213 81.224-81.213 22.428 0 42.723 9.087 57.42 23.783 14.695 14.707 23.782 35.003 23.782 57.43z" fill="#ffcec0"/><ellipse cx="213.342" cy="181.664" fill="#f8b1b2" rx="16.925" ry="9.632"/><ellipse cx="299.725" cy="181.664" fill="#f8b1b2" rx="16.925" ry="9.632"/><path d="m337.203 132.499v3.974h-162.427v-3.974c0-44.855 36.368-81.213 81.224-81.213 22.428 0 42.723 9.087 57.42 23.783 14.696 14.707 23.783 35.003 23.783 57.43z" fill="#fdb0a0"/><g><path d="m143.975 325.128 30.372 18.81c6.664 4.127 15.345-.359 15.784-8.185 3.801-67.78-5.009-152.315 4.064-200.412 2.478-13.134 6.061-24.023 10.315-33.077h-50.979c-9.88 21.347-14.534 46.161-11.685 74.712 4.29 42.999-2.006 78.626-12.134 106.886-5.532 15.435.324 32.633 14.263 41.266z" fill="#ffd496"/><path d="m204.511 102.268h-50.982c-4.885 10.546-8.487 21.931-10.536 34.205h8.947c9.307 0 16.632 7.993 15.754 17.259-4.676 49.349 1.783 122.204-1.569 182.023-.052.973-.238 1.904-.528 2.763l8.756 5.423c6.655 4.119 15.338-.362 15.783-8.186 3.798-67.78-5.009-152.315 4.057-200.41 2.483-13.133 6.064-24.031 10.318-33.077z" fill="#fcc16d"/></g><g><g><path d="m255.072 231.885c-7.01 0-13.627-2.339-18.633-6.586-3.254-2.761-3.654-7.636-.893-10.89s7.636-3.654 10.89-.893c2.185 1.854 5.332 2.917 8.636 2.917s6.451-1.063 8.636-2.917c3.254-2.761 8.13-2.36 10.89.893 2.761 3.254 2.361 8.13-.893 10.89-5.006 4.247-11.623 6.586-18.633 6.586z" fill="#fdb0a0"/></g><g><g><g id="XMLID_197_"><path d="m294.836 169.094c-.016 0-.031 0-.047 0-4.267-.026-7.748-3.506-7.723-7.773.026-4.251 3.438-7.681 7.683-7.681h.047l.085.001c4.267.026 7.706 3.505 7.681 7.772-.026 4.252-3.481 7.681-7.726 7.681z" fill="#6fabc9"/></g></g><g><g id="XMLID_196_"><path d="m217.248 169.094c-4.267 0-7.768-3.459-7.768-7.726s3.418-7.726 7.685-7.726h.083c4.267 0 7.726 3.459 7.726 7.726s-3.458 7.726-7.726 7.726z" fill="#6fabc9"/></g></g></g><g><path d="m255.081 201.969c-.468 0-.943-.043-1.421-.132-9.77-1.816-16.272-10.936-14.801-20.764l4.018-26.859c.632-4.22 4.561-7.126 8.785-6.498 4.22.631 7.129 4.564 6.498 8.785l-4.018 26.859c-.232 1.555.796 2.997 2.343 3.285 4.195.78 6.964 4.813 6.184 9.008-.691 3.718-3.938 6.316-7.588 6.316z" fill="#fdb0a0"/></g></g><g><path d="m353.923 92.315c-2.83-19.128-16.056-92.986-50.772-85.932-39.842 8.096-58.17-6.383-93.333-6.383-31.695 0-48.695 77.104-51.741 92.315z" fill="#edc1bb"/><path d="m353.918 92.312h-33.678c-2.37-16.032-12.047-70.532-35.572-83.583 5.672-.259 11.767-.983 18.484-2.349 34.713-7.049 47.94 66.806 50.766 85.932z" fill="#d6a59d"/><g><path d="m398.149 115.776h-284.298c-7.462 0-13.512-6.049-13.512-13.512 0-7.462 6.049-13.512 13.512-13.512h284.297c7.462 0 13.512 6.049 13.512 13.512 0 7.463-6.049 13.512-13.511 13.512z" fill="#f1ceca"/><path d="m411.658 102.268c0 3.736-1.511 7.11-3.954 9.553-2.443 2.442-5.816 3.953-9.553 3.953h-25.688c3.736 0 7.11-1.511 9.553-3.953 2.453-2.443 3.964-5.817 3.964-9.553 0-7.462-6.055-13.517-13.517-13.517h25.688c7.463.001 13.507 6.055 13.507 13.517z" fill="#edc1bb"/></g></g></g><g><g><g><path d="m195.735 512v-136.991c0-4.267 3.459-7.726 7.726-7.726s7.726 3.459 7.726 7.726v136.991z" fill="#ffe1da"/></g><g><path d="m230.761 512v-116.388c0-4.267 3.459-7.726 7.726-7.726s7.726 3.459 7.726 7.726v116.388z" fill="#ffe1da"/></g><g><path d="m265.786 512v-116.388c0-4.267 3.459-7.726 7.726-7.726s7.726 3.459 7.726 7.726v116.388z" fill="#ffe1da"/></g><g><path d="m300.812 512v-136.991c0-4.267 3.459-7.726 7.726-7.726s7.726 3.459 7.726 7.726v136.991z" fill="#ffe1da"/></g></g></g></g><g><g><path d="m265.638 47.969c-.16 0-.32-.005-.482-.015-23.325-1.436-41.459-13.012-42.22-13.504-3.582-2.318-4.608-7.102-2.29-10.684 2.315-3.578 7.089-4.605 10.67-2.299.154.099 15.632 9.885 34.789 11.064 4.26.262 7.499 3.927 7.237 8.186-.251 4.097-3.654 7.252-7.704 7.252z" fill="#d6a59d"/></g></g></g></svg>